<svg viewBox="0 0 1024 1024">
  <path d="M341.333 405.333h341.334c12.8 0 21.333-8.533 21.333-21.333s-8.533-21.333-21.333-21.333H341.333C328.533 362.667 320 371.2 320 384s10.667 21.333 21.333 21.333zm0 128h256c12.8 0 21.334-8.533 21.334-21.333s-8.534-21.333-21.334-21.333h-256C328.533 490.667 320 499.2 320 512s10.667 21.333 21.333 21.333zM957.867 448c0-211.2-200.534-381.867-445.867-381.867C264.533 66.133 64 236.8 64 448c0 108.8 66.133 217.6 181.333 294.4C256 748.8 268.8 746.667 275.2 736c6.4-10.667 4.267-23.467-6.4-29.867-59.733-40.533-162.133-128-162.133-258.133C106.667 260.267 288 108.8 512 108.8c221.867 0 403.2 151.467 403.2 339.2S733.867 787.2 512 787.2c-2.133 0-4.267 0-6.4 2.133-10.667-4.266-21.333 2.134-25.6 12.8-8.533 25.6-70.4 66.134-125.867 96 23.467-76.8 12.8-89.6 8.534-96-4.267-6.4-12.8-10.666-21.334-10.666-12.8 0-21.333 8.533-21.333 21.333 0 6.4 2.133 10.667 6.4 14.933 0 17.067-14.933 66.134-27.733 104.534-2.134 8.533 0 17.066 6.4 23.466 4.266 4.267 8.533 6.4 14.933 6.4 2.133 0 6.4 0 8.533-2.133 25.6-10.667 151.467-68.267 185.6-128 245.334-2.133 443.734-172.8 443.734-384z"></path>
</svg>
