<svg viewBox="0 0 1024 1024">
  <path d="M951.467 430.933L565.333 125.867c-29.866-23.467-76.8-23.467-106.666 0L72.533 430.933c-6.4 6.4-10.666 14.934-6.4 23.467s10.667 14.933 19.2 14.933h44.8V844.8c0 42.667 32 72.533 74.667 72.533h224c12.8 0 21.333-8.533 21.333-21.333V742.4c0-32 27.734-59.733 61.867-59.733h4.267c34.133 0 61.866 27.733 61.866 59.733V896c0 12.8 8.534 21.333 21.334 21.333H825.6c42.667 0 70.4-29.866 70.4-72.533V469.333h42.667c8.533 0 17.066-6.4 19.2-14.933s2.133-17.067-6.4-23.467z"></path>
</svg>
