<svg viewBox="0 0 1024 1024">
  <path d="M512 64C264.533 64 64 234.667 64 445.867c0 204.8 226.133 339.2 268.8 362.666-2.133 21.334-19.2 76.8-36.267 121.6-2.133 8.534 0 17.067 4.267 23.467 4.267 4.267 8.533 6.4 14.933 6.4 2.134 0 6.4 0 8.534-2.133 27.733-12.8 153.6-70.4 192-130.134C761.6 825.6 960 654.933 960 445.867 960 234.667 759.467 64 512 64zm85.333 469.333h-256C328.533 533.333 320 524.8 320 512s8.533-21.333 21.333-21.333h256c12.8 0 21.334 8.533 21.334 21.333S608 533.333 597.333 533.333zm85.334-128H341.333C328.533 405.333 320 396.8 320 384s8.533-21.333 21.333-21.333h341.334c12.8 0 21.333 8.533 21.333 21.333s-8.533 21.333-21.333 21.333z"></path>
</svg>
