<svg t="1493884174784" class="icon" style="width: 1em; height: 1em;vertical-align: middle;fill: currentColor;overflow: hidden;" viewBox="0 0 1024 1024" version="1.1" xmlns="http://www.w3.org/2000/svg" p-id="11724"><path d="M512 1024C229.23264 1024 0 794.76736 0 512S229.23264 0 512 0s512 229.23264 512 512-229.23264 512-512 512z m0-233.73824c30.73536 0 55.6544-24.91904 55.6544-55.6544 0-30.73536-24.91904-55.6544-55.6544-55.6544-30.73536 0-55.6544 24.91904-55.6544 55.6544 0 30.73536 24.91904 55.6544 55.6544 55.6544z m-55.05024-546.304l21.05856 357.99552c0.3328 5.64224 5.20704 10.21952 10.89024 10.21952h46.20288c5.69856 0 10.55744-4.57216 10.89024-10.21952l21.05856-357.9904a9.55392 9.55392 0 0 0-9.67168-10.22464H466.62144a9.53856 9.53856 0 0 0-9.6768 10.21952z" fill="#F43530" p-id="11725"></path></svg>
